{
	"asset":{
		"generator":"Khronos glTF Blender I/O v4.1.63",
		"version":"2.0"
	},
	"scene":0,
	"scenes":[
		{
			"name":"Scene",
			"nodes":[
				0
			]
		}
	],
	"nodes":[
		{
			"mesh":0,
			"name":"EXPORT_GOOGLE_SAT_WM.001",
			"rotation":[
				0,
				-0.5979920625686646,
				0,
				0.8015021681785583
			],
			"translation":[
				81.072509765625,
				-1031.747314453125,
				466.82720947265625
			]
		}
	],
	"materials":[
		{
			"doubleSided":true,
			"name":"rastMat.001",
			"pbrMetallicRoughness":{
				"baseColorTexture":{
					"index":0
				},
				"metallicFactor":0,
				"roughnessFactor":0.5
			}
		}
	],
	"meshes":[
		{
			"name":"EXPORT_GOOGLE_SAT_WM.001",
			"primitives":[
				{
					"attributes":{
						"POSITION":0,
						"NORMAL":1,
						"TEXCOORD_0":2,
						"TEXCOORD_1":3
					},
					"indices":4,
					"material":0
				}
			]
		}
	],
	"textures":[
		{
			"sampler":0,
			"source":0
		}
	],
	"images":[
		{
			"mimeType":"image/png",
			"name":"EXPORT_GOOGLE_SAT_WM",
			"uri":"textures/EXPORT_GOOGLE_SAT_WM.png"
		}
	],
	"accessors":[
		{
			"bufferView":0,
			"componentType":5126,
			"count":37249,
			"max":[
				4411.7099609375,
				1215.70263671875,
				3353.610595703125
			],
			"min":[
				-4154.07958984375,
				385.2983093261719,
				-2767.38525390625
			],
			"type":"VEC3"
		},
		{
			"bufferView":1,
			"componentType":5126,
			"count":37249,
			"type":"VEC3"
		},
		{
			"bufferView":2,
			"componentType":5126,
			"count":37249,
			"type":"VEC2"
		},
		{
			"bufferView":3,
			"componentType":5126,
			"count":37249,
			"type":"VEC2"
		},
		{
			"bufferView":4,
			"componentType":5123,
			"count":221184,
			"type":"SCALAR"
		}
	],
	"bufferViews":[
		{
			"buffer":0,
			"byteLength":446988,
			"byteOffset":0,
			"target":34962
		},
		{
			"buffer":0,
			"byteLength":446988,
			"byteOffset":446988,
			"target":34962
		},
		{
			"buffer":0,
			"byteLength":297992,
			"byteOffset":893976,
			"target":34962
		},
		{
			"buffer":0,
			"byteLength":297992,
			"byteOffset":1191968,
			"target":34962
		},
		{
			"buffer":0,
			"byteLength":442368,
			"byteOffset":1489960,
			"target":34963
		}
	],
	"samplers":[
		{
			"magFilter":9729,
			"minFilter":9987,
			"wrapS":33071,
			"wrapT":33071
		}
	],
	"buffers":[
		{
			"byteLength":1932328,
			"uri":"environment.bin"
		}
	]
}
