{
	"asset":{
		"generator":"Khronos glTF Blender I/O v4.1.63",
		"version":"2.0"
	},
	"scene":0,
	"scenes":[
		{
			"name":"Scene",
			"nodes":[
				0
			]
		}
	],
	"nodes":[
		{
			"mesh":0,
			"name":"terrain"
		}
	],
	"materials":[
		{
			"doubleSided":true,
			"name":"terrain.001",
			"pbrMetallicRoughness":{
				"baseColorTexture":{
					"index":0
				},
				"metallicFactor":0.14501510560512543,
				"roughnessFactor":0.6812688708305359
			}
		}
	],
	"meshes":[
		{
			"name":"Mesh.001",
			"primitives":[
				{
					"attributes":{
						"POSITION":0,
						"NORMAL":1,
						"TEXCOORD_0":2
					},
					"indices":3,
					"material":0
				}
			]
		}
	],
	"textures":[
		{
			"sampler":0,
			"source":0
		}
	],
	"images":[
		{
			"mimeType":"image/jpeg",
			"name":"terrain.jpg",
			"uri":"textures/terrain_jpg.jpg"
		}
	],
	"accessors":[
		{
			"bufferView":0,
			"componentType":5126,
			"count":26874,
			"max":[
				22.48101806640625,
				8.673039436340332,
				17.810035705566406
			],
			"min":[
				-22.48101806640625,
				9.5367431640625e-07,
				-17.81003761291504
			],
			"type":"VEC3"
		},
		{
			"bufferView":1,
			"componentType":5126,
			"count":26874,
			"type":"VEC3"
		},
		{
			"bufferView":2,
			"componentType":5126,
			"count":26874,
			"type":"VEC2"
		},
		{
			"bufferView":3,
			"componentType":5123,
			"count":154782,
			"type":"SCALAR"
		}
	],
	"bufferViews":[
		{
			"buffer":0,
			"byteLength":322488,
			"byteOffset":0,
			"target":34962
		},
		{
			"buffer":0,
			"byteLength":322488,
			"byteOffset":322488,
			"target":34962
		},
		{
			"buffer":0,
			"byteLength":214992,
			"byteOffset":644976,
			"target":34962
		},
		{
			"buffer":0,
			"byteLength":309564,
			"byteOffset":859968,
			"target":34963
		}
	],
	"samplers":[
		{
			"magFilter":9729,
			"minFilter":9987
		}
	],
	"buffers":[
		{
			"byteLength":1169532,
			"uri":"terrain.bin"
		}
	]
}
